<svg width="30" height="29" viewBox="0 0 30 29" fill="none" xmlns="http://www.w3.org/2000/svg">
<g id="Group">
<path id="Vector" d="M14.9437 2.5896C18.7814 2.5896 19.2365 2.60398 20.7517 2.67345C22.3184 2.74531 23.9318 3.10225 25.0733 4.24374C26.2256 5.396 26.5717 6.99384 26.6436 8.56533C26.7131 10.0805 26.7275 10.5357 26.7275 14.3734C26.7275 18.2111 26.7131 18.6662 26.6436 20.1814C26.5729 21.7397 26.2076 23.3687 25.0733 24.503C23.9211 25.6553 22.3244 26.0014 20.7517 26.0733C19.2365 26.1428 18.7814 26.1571 14.9437 26.1571C11.106 26.1571 10.6508 26.1428 9.13564 26.0733C7.58931 26.0026 5.93877 25.6289 4.81405 24.503C3.66777 23.3567 3.31563 21.7433 3.24376 20.1814C3.17429 18.6662 3.15991 18.2111 3.15991 14.3734C3.15991 10.5357 3.17429 10.0805 3.24376 8.56533C3.31443 7.01301 3.68335 5.37444 4.81405 4.24374C5.96392 3.09387 7.56775 2.74531 9.13564 2.67345C10.6508 2.60398 11.106 2.5896 14.9437 2.5896ZM14.9437 0C11.0401 0 10.5502 0.0167689 9.01706 0.0862402C6.79518 0.188052 4.58887 0.806107 2.98264 2.41233C1.37043 4.02454 0.758364 6.22607 0.656553 8.44675C0.587081 9.97991 0.570312 10.4698 0.570312 14.3734C0.570312 18.2769 0.587081 18.7668 0.656553 20.3C0.758364 22.5195 1.37881 24.7318 2.98264 26.3344C4.59366 27.9454 6.79877 28.5587 9.01706 28.6605C10.5502 28.73 11.0401 28.7467 14.9437 28.7467C18.8473 28.7467 19.3371 28.73 20.8703 28.6605C23.091 28.5587 25.2997 27.9394 26.9047 26.3344C28.5181 24.721 29.129 22.5207 29.2308 20.3C29.3003 18.7668 29.3171 18.2769 29.3171 14.3734C29.3171 10.4698 29.3003 9.97991 29.2308 8.44675C29.129 6.22487 28.5098 4.01736 26.9047 2.41233C25.2961 0.803711 23.085 0.186854 20.8703 0.0862402C19.3371 0.0167689 18.8473 0 14.9437 0Z" fill="#0E0E0E"/>
<path id="Vector_2" d="M14.9437 6.99265C10.8677 6.99265 7.56299 10.2973 7.56299 14.3734C7.56299 18.4494 10.8677 21.7541 14.9437 21.7541C19.0198 21.7541 22.3244 18.4494 22.3244 14.3734C22.3244 10.2973 19.0198 6.99265 14.9437 6.99265ZM14.9437 19.1645C12.2978 19.1645 10.1526 17.0193 10.1526 14.3734C10.1526 11.7275 12.2978 9.58225 14.9437 9.58225C17.5896 9.58225 19.7348 11.7275 19.7348 14.3734C19.7348 17.0193 17.5896 19.1645 14.9437 19.1645Z" fill="#0E0E0E"/>
<path id="Vector_3" d="M22.6169 8.42519C23.5695 8.42519 24.3417 7.65297 24.3417 6.70039C24.3417 5.74781 23.5695 4.97559 22.6169 4.97559C21.6643 4.97559 20.8921 5.74781 20.8921 6.70039C20.8921 7.65297 21.6643 8.42519 22.6169 8.42519Z" fill="#0E0E0E"/>
</g>
</svg>
