<svg width="29" height="29" viewBox="0 0 29 29" fill="none" xmlns="http://www.w3.org/2000/svg">
<g id="WA_Logo">
<g id="Group">
<path id="Vector" fill-rule="evenodd" clip-rule="evenodd" d="M24.4419 4.17786C21.7517 1.48525 18.1751 0.00119778 14.365 0C6.51353 0 0.123371 6.38896 0.119778 14.244C0.11858 16.7546 0.774964 19.2052 2.02185 21.366L0 28.7467L7.55081 26.7656C9.63136 27.9011 11.9742 28.4988 14.3578 28.5H14.3638C22.214 28.5 28.6054 22.1098 28.609 14.2548C28.6114 10.4494 27.1309 6.86927 24.4419 4.17786ZM14.365 26.0937H14.3602C12.2353 26.0937 10.1524 25.5223 8.33416 24.4431L7.90176 24.1868L3.42086 25.3618L4.61744 20.9923L4.33597 20.5443C3.15016 18.659 2.52492 16.4803 2.52612 14.244C2.52852 7.71611 7.84067 2.40514 14.371 2.40514C17.5331 2.40514 20.506 3.63886 22.7411 5.87631C24.9761 8.11497 26.2062 11.0891 26.205 14.2524C26.2015 20.7827 20.8905 26.0937 14.365 26.0937ZM20.8594 17.2265C20.5036 17.048 18.7537 16.1868 18.4267 16.0682C18.1009 15.9497 17.8637 15.8898 17.6253 16.2455C17.387 16.6012 16.7066 17.4038 16.4982 17.6421C16.291 17.8793 16.0826 17.9092 15.7269 17.7308C15.3711 17.5523 14.2236 17.1774 12.8642 15.964C11.8065 15.0202 11.0915 13.8547 10.8842 13.4978C10.677 13.1409 10.8627 12.9492 11.0399 12.7719C11.2004 12.6126 11.3957 12.3563 11.5742 12.1479C11.7538 11.9419 11.8125 11.7934 11.9323 11.555C12.0509 11.3178 11.9922 11.1094 11.9023 10.9309C11.8125 10.7537 11.101 9.00132 10.8052 8.28864C10.5165 7.59393 10.2231 7.68856 10.0039 7.67778C9.79665 7.667 9.55949 7.6658 9.32113 7.6658C9.08397 7.6658 8.69828 7.75443 8.37249 8.11137C8.04669 8.46831 7.1268 9.32952 7.1268 11.0807C7.1268 12.833 8.40243 14.5255 8.5797 14.7627C8.75698 14.9998 11.0891 18.5956 14.6596 20.1371C15.5089 20.5036 16.1724 20.7228 16.6887 20.8869C17.5415 21.1576 18.3177 21.1193 18.9309 21.0282C19.6149 20.9264 21.0366 20.167 21.3337 19.3358C21.6307 18.5045 21.6307 17.7906 21.5409 17.6433C21.4523 17.4936 21.2151 17.405 20.8594 17.2265Z" fill="#0E0E0E"/>
</g>
</g>
</svg>
