<svg width="261" height="12" viewBox="0 0 261 12" fill="none" xmlns="http://www.w3.org/2000/svg">
<path d="M54.384 0H49.8962V11.4417H54.384C55.6648 11.3297 56.7349 10.7338 57.5943 9.6571C58.4767 8.51458 58.8586 7.20085 58.7335 5.71919C58.8685 4.19473 58.4734 2.86453 57.5449 1.73189C56.6921 0.701317 55.6418 0.125118 54.384 0ZM57.3737 5.67309V5.72248C57.4757 6.9572 57.1629 8.0174 56.4386 8.9031C55.8492 9.62088 55.1314 10.0193 54.2819 10.0983H51.256V1.34666H54.2819C55.2895 1.43556 56.0928 1.94591 56.6954 2.87771C57.2255 3.70743 57.4527 4.63923 57.3737 5.67309ZM260.574 10.5L256.155 0.404986L255.967 0H255.085L254.897 0.404986L250.478 10.5L250.07 11.4417H251.549L251.736 11.0367L255.526 2.37065L259.316 11.0367L259.504 11.4417H260.982L260.574 10.5ZM76.8297 5.90687L79.1049 4.29022V3.12794L76.8297 4.76105V0.10207H75.3513V5.77187L73.9256 6.79915V7.94167L75.3513 6.89793V11.4417H81.7225V10.2135H76.8297V5.90687ZM9.12711 0H7.19105L7.00338 0.200847L2.10727 5.0508H1.35985V0H0V11.4417H1.35985V6.39417H2.10727L7.00008 11.2408L7.18776 11.4417H9.12381L7.95165 10.2992L3.34529 5.72248L7.95165 1.14581L9.12711 0ZM29.1462 0.404986L28.9585 0H28.0761L27.8884 0.404986L23.4697 10.5L23.0614 11.4417H24.5398L24.7275 11.0367L28.5173 2.37065L32.3071 11.04L32.4947 11.445H33.9731L33.5648 10.5033L29.1462 0.404986ZM152.678 0C151.318 0 150.146 0.526811 149.162 1.58043C148.108 2.71308 147.581 4.09266 147.581 5.71919C147.581 7.34572 148.101 8.71872 149.145 9.84149C150.143 10.8951 151.322 11.4285 152.678 11.4417C154.038 11.4417 155.21 10.9149 156.195 9.86124C157.248 8.7286 157.775 7.34901 157.775 5.72248C157.775 4.09595 157.255 2.72295 156.211 1.60019C155.217 0.546566 154.038 0.0131703 152.678 0ZM155.177 8.96896C154.463 9.70978 153.63 10.0851 152.678 10.095C151.578 10.095 150.663 9.62418 149.926 8.6825C149.267 7.82973 148.941 6.84196 148.941 5.72248C148.941 4.4318 149.356 3.35183 150.182 2.47601C150.897 1.73518 151.73 1.35983 152.681 1.34995C153.781 1.34995 154.7 1.82079 155.434 2.76246C156.089 3.61524 156.419 4.60301 156.419 5.72248C156.415 7.01317 156.004 8.09313 155.177 8.96896ZM185.631 0.523518L183.879 8.4158L180.804 0.437912L180.652 0H179.701L179.549 0.437912L176.474 8.41251L174.722 0.520226L174.604 0H173.211L173.399 0.823142L175.644 10.9182L175.763 11.4417H176.783L176.935 11.0038L180.181 2.57479L183.428 11.0038L183.579 11.4417H184.6L184.719 10.9182L186.961 0.823142L187.148 0H185.756L185.631 0.523518ZM130.45 5.84102C130.292 5.71919 130.121 5.60724 129.939 5.50517C130.654 4.85325 131.016 4.08608 131.026 3.20038C131.026 2.2587 130.634 1.4619 129.854 0.809972C129.185 0.269991 128.415 0.00329264 127.542 0.00329264L123.838 0.0197559H123.16V0.691439L123.143 5.72248V11.4417H128.175C129.261 11.4417 130.15 11.0499 130.842 10.2629C131.375 9.67027 131.642 8.9953 131.642 8.24459C131.638 7.28316 131.24 6.47977 130.45 5.84102ZM124.5 1.34666H127.542C128.267 1.34666 128.846 1.61007 129.274 2.13688C129.534 2.46284 129.666 2.81515 129.666 3.19708C129.666 3.83584 129.36 4.33961 128.748 4.71167C128.372 4.93556 127.97 5.04751 127.542 5.04751L124.5 5.06726V1.34666ZM129.36 9.75917C128.998 9.98307 128.599 10.095 128.171 10.095L124.517 10.1115V6.39417H128.171C128.909 6.39417 129.485 6.65757 129.903 7.18438C130.153 7.51035 130.275 7.86265 130.275 8.24459C130.279 8.88664 129.972 9.3904 129.36 9.75917ZM104.481 0.674977V7.6223C104.481 8.42898 104.129 9.0809 103.427 9.57479C102.927 9.9238 102.374 10.095 101.761 10.095C100.866 10.095 100.148 9.76905 99.6047 9.12041C99.2293 8.67262 99.0449 8.17215 99.0449 7.6223L99.0614 0.691439L99.0778 0.0197559H97.7015L97.6851 0.674977V7.6223C97.6851 8.72201 98.1164 9.64723 98.9758 10.3979C99.7693 11.0927 100.698 11.4417 101.761 11.4417C102.986 11.4417 104.004 11.0103 104.82 10.1477C105.502 9.40687 105.841 8.56397 105.841 7.6223L105.857 0.691439L105.874 0.0197559H104.497L104.481 0.674977ZM208.333 5.70602C208.06 5.5842 207.25 5.25823 205.903 4.73142C204.817 4.31656 204.175 3.92474 203.984 3.55268C203.928 3.43086 203.898 3.31232 203.898 3.20038C203.898 2.55174 204.244 2.04469 204.935 1.6858C205.366 1.4619 205.824 1.34995 206.311 1.34995C207.151 1.34995 207.813 1.61336 208.3 2.14017C208.583 2.45296 208.725 2.80856 208.725 3.20038H210.085C210.085 2.26858 209.676 1.48495 208.86 0.84619C208.136 0.286453 207.286 0.00658529 206.311 0.00658529C205.087 0.00658529 204.102 0.411571 203.355 1.21825C202.811 1.81091 202.538 2.47272 202.538 3.20367C202.538 4.20132 203.223 5.03763 204.596 5.70931C204.856 5.83443 205.656 6.15381 206.993 6.66745C208.093 7.09548 208.738 7.49718 208.929 7.87912C208.998 8.00423 209.031 8.12606 209.031 8.25118C209.031 8.86689 208.662 9.36077 207.925 9.73283C207.428 9.97977 206.888 10.1016 206.311 10.1016C205.393 10.1016 204.659 9.84478 204.102 9.32785C203.773 9.00188 203.605 8.64299 203.592 8.25118H202.232C202.232 9.127 202.634 9.88429 203.437 10.523C204.24 11.1388 205.199 11.4483 206.308 11.4483C207.589 11.4483 208.643 11.0433 209.469 10.2366C210.068 9.63076 210.375 8.96896 210.388 8.25118C210.391 7.23706 209.703 6.39088 208.333 5.70602ZM236.136 0H234.2L234.012 0.200847L229.116 5.04751H228.369V0H227.009V11.4417H228.369V6.39417H229.116L234.012 11.2408L234.2 11.4417H236.136L234.964 10.2992L230.357 5.72248L234.964 1.14581L236.136 0Z" fill="#A2A2A2"/>
</svg>
