<svg width="284" height="12" viewBox="0 0 284 12" fill="none" xmlns="http://www.w3.org/2000/svg">
<path d="M59.1805 0H54.2969V11.9931H59.1805C60.5743 11.8758 61.7388 11.2511 62.674 10.1225C63.6342 8.92494 64.0499 7.54789 63.9137 5.99482C64.0606 4.39689 63.6306 3.00259 62.6202 1.81536C61.6922 0.735117 60.5493 0.131148 59.1805 0ZM62.4339 5.94651V5.99827C62.545 7.29249 62.2046 8.4038 61.4163 9.33218C60.775 10.0846 59.9939 10.5022 59.0695 10.585H55.7767V1.41156H59.0695C60.1659 1.50475 61.0401 2.03969 61.6958 3.01639C62.2727 3.88611 62.5199 4.86281 62.4339 5.94651ZM283.556 11.006L278.747 0.424504L278.543 0H277.583L277.379 0.424504L272.57 11.006L272.126 11.9931H273.735L273.939 11.5686L278.063 2.4849L282.187 11.5686L282.391 11.9931H284L283.556 11.006ZM83.6059 6.19155L86.0818 4.49698V3.27869L83.6059 4.99051V0.106989H81.9971V6.05004L80.4457 7.12683V8.32442L81.9971 7.23037V11.9931H88.9303V10.7058H83.6059V6.19155ZM9.9321 0H7.82529L7.62106 0.210527L2.29313 5.29422H1.47978V0H0V11.9931H1.47978V6.70233H2.29313L7.61748 11.7826L7.82171 11.9931H9.92852L8.65296 10.7955L3.64034 5.99827L8.65296 1.20104L9.9321 0ZM31.7168 0.424504L31.5126 0H30.5523L30.3481 0.424504L25.5397 11.006L25.0954 11.9931H26.7042L26.9084 11.5686L31.0324 2.4849L35.1565 11.572L35.3607 11.9965H36.9695L36.5252 11.0095L31.7168 0.424504ZM166.144 0C164.664 0 163.389 0.552201 162.317 1.6566C161.171 2.84383 160.598 4.2899 160.598 5.99482C160.598 7.69974 161.164 9.13891 162.3 10.3158C163.385 11.4202 164.668 11.9793 166.144 11.9931C167.624 11.9931 168.899 11.4409 169.971 10.3365C171.117 9.14927 171.691 7.70319 171.691 5.99827C171.691 4.29336 171.124 2.85418 169.989 1.67731C168.907 0.572908 167.624 0.013805 166.144 0ZM168.864 9.40121C168.086 10.1777 167.18 10.5712 166.144 10.5815C164.947 10.5815 163.951 10.088 163.149 9.10095C162.432 8.20708 162.077 7.1717 162.077 5.99827C162.077 4.64538 162.529 3.51337 163.428 2.59534C164.206 1.81881 165.112 1.42537 166.148 1.41501C167.344 1.41501 168.344 1.90854 169.143 2.8956C169.856 3.78947 170.214 4.82485 170.214 5.99827C170.211 7.35117 169.763 8.48318 168.864 9.40121ZM202.003 0.548749L200.097 8.8214L196.75 0.459016L196.585 0H195.55L195.385 0.459016L192.038 8.81795L190.132 0.545298L190.003 0H188.488L188.692 0.862813L191.136 11.4443L191.265 11.9931H192.375L192.54 11.5341L196.073 2.69888L199.606 11.5341L199.771 11.9931H200.881L201.01 11.4443L203.45 0.862813L203.655 0H202.139L202.003 0.548749ZM141.955 6.12252C141.783 5.99482 141.597 5.87748 141.4 5.77049C142.177 5.08714 142.571 4.283 142.582 3.35462C142.582 2.36756 142.156 1.53236 141.307 0.849008C140.579 0.283003 139.741 0.00345133 138.791 0.00345133L134.761 0.020708H134.022V0.724763L134.005 5.99827V11.9931H139.479C140.662 11.9931 141.629 11.5824 142.382 10.7576C142.962 10.1363 143.252 9.42882 143.252 8.64193C143.249 7.63417 142.815 6.79206 141.955 6.12252ZM135.481 1.41156H138.791C139.58 1.41156 140.21 1.68766 140.676 2.23986C140.959 2.58154 141.102 2.95082 141.102 3.35116C141.102 4.02071 140.769 4.54875 140.103 4.93874C139.694 5.17343 139.257 5.29077 138.791 5.29077L135.481 5.31148V1.41156ZM140.769 10.2295C140.375 10.4642 139.942 10.5815 139.476 10.5815L135.499 10.5988V6.70233H139.476C140.278 6.70233 140.905 6.97843 141.36 7.53063C141.633 7.8723 141.765 8.24159 141.765 8.64193C141.769 9.31493 141.436 9.84297 140.769 10.2295ZM113.696 0.707507V7.98965C113.696 8.8352 113.313 9.51855 112.549 10.0362C112.005 10.4021 111.403 10.5815 110.736 10.5815C109.762 10.5815 108.981 10.2399 108.39 9.55997C107.981 9.0906 107.78 8.56601 107.78 7.98965L107.798 0.724763L107.816 0.020708H106.319L106.301 0.707507V7.98965C106.301 9.14236 106.77 10.1122 107.705 10.8991C108.569 11.6273 109.579 11.9931 110.736 11.9931C112.069 11.9931 113.176 11.541 114.065 10.6368C114.807 9.86022 115.176 8.9767 115.176 7.98965L115.194 0.724763L115.212 0.020708H113.714L113.696 0.707507ZM226.708 5.98102C226.41 5.85332 225.529 5.51165 224.063 4.95945C222.881 4.52459 222.182 4.11389 221.975 3.7239C221.914 3.5962 221.881 3.47196 221.881 3.35462C221.881 2.67472 222.258 2.14323 223.01 1.76704C223.479 1.53236 223.977 1.41501 224.508 1.41501C225.421 1.41501 226.142 1.69111 226.672 2.24331C226.98 2.57118 227.134 2.94392 227.134 3.35462H228.614C228.614 2.37791 228.17 1.55651 227.281 0.886971C226.493 0.300259 225.568 0.00690266 224.508 0.00690266C223.175 0.00690266 222.104 0.431407 221.29 1.27696C220.699 1.89819 220.402 2.59189 220.402 3.35807C220.402 4.4038 221.147 5.28041 222.641 5.98447C222.924 6.11562 223.795 6.45039 225.249 6.98878C226.446 7.43745 227.148 7.8585 227.356 8.25884C227.431 8.38999 227.467 8.51769 227.467 8.64884C227.467 9.29422 227.066 9.81191 226.263 10.2019C225.722 10.4607 225.135 10.5884 224.508 10.5884C223.508 10.5884 222.709 10.3192 222.104 9.7774C221.745 9.43572 221.562 9.05954 221.548 8.64884H220.068C220.068 9.56687 220.505 10.3607 221.38 11.0302C222.254 11.6756 223.297 12 224.504 12C225.898 12 227.044 11.5755 227.944 10.7299C228.596 10.0949 228.929 9.40121 228.943 8.64884C228.947 7.58585 228.198 6.69888 226.708 5.98102ZM256.963 0H254.856L254.652 0.210527L249.324 5.29077H248.51V0H247.031V11.9931H248.51V6.70233H249.324L254.652 11.7826L254.856 11.9931H256.963L255.687 10.7955L250.674 5.99827L255.687 1.20104L256.963 0Z" fill="#0E0E0E"/>
</svg>
