<?xml version="1.0" encoding="utf-8"?>
<!-- Generator: Adobe Illustrator 25.1.0, SVG Export Plug-In . SVG Version: 6.00 Build 0)  -->
<svg version="1.1" id="Warstwa_1" xmlns="http://www.w3.org/2000/svg" xmlns:xlink="http://www.w3.org/1999/xlink" x="0px" y="0px"
	 viewBox="0 0 850.39 85.04" style="enable-background:new 0 0 850.39 85.04;" xml:space="preserve">
<path d="M194.05,25.14h-13.63v34.75h13.63c3.89-0.34,7.14-2.15,9.75-5.42c2.68-3.47,3.84-7.46,3.46-11.96
	c0.41-4.63-0.79-8.67-3.61-12.11C201.06,27.27,197.87,25.52,194.05,25.14z M203.13,42.37v0.15c0.31,3.75-0.64,6.97-2.84,9.66
	c-1.79,2.18-3.97,3.39-6.55,3.63h-9.19V29.23h9.19c3.06,0.27,5.5,1.82,7.33,4.65C202.68,36.4,203.37,39.23,203.13,42.37z
	 M820.27,57.03l-13.42-30.66l-0.57-1.23h-2.68l-0.57,1.23l-13.42,30.66l-1.24,2.86h4.49l0.57-1.23l11.51-26.32l11.51,26.32
	l0.57,1.23h4.49L820.27,57.03z M262.22,43.08l6.91-4.91v-3.53l-6.91,4.96V25.45h-4.49v17.22l-4.33,3.12v3.47l4.33-3.17v13.8h19.35
	v-3.73h-14.86V43.08z M56.6,25.14h-5.88l-0.57,0.61L35.28,40.48h-2.27V25.14h-4.13v34.75h4.13V44.56h2.27l14.86,14.72l0.57,0.61
	h5.88l-3.56-3.47l-13.99-13.9l13.99-13.9L56.6,25.14z M117.4,26.37l-0.57-1.23h-2.68l-0.57,1.23l-13.42,30.66l-1.24,2.86h4.49
	l0.57-1.23l11.51-26.32L127,58.67l0.57,1.23h4.49l-1.24-2.86L117.4,26.37z M492.58,25.14c-4.13,0-7.69,1.6-10.68,4.8
	c-3.2,3.44-4.8,7.63-4.8,12.57s1.58,9.11,4.75,12.52c3.03,3.2,6.61,4.82,10.73,4.86c4.13,0,7.69-1.6,10.68-4.8
	c3.2-3.44,4.8-7.63,4.8-12.57s-1.58-9.11-4.75-12.52C500.29,26.8,496.71,25.18,492.58,25.14z M500.17,52.38
	c-2.17,2.25-4.7,3.39-7.59,3.42c-3.34,0-6.12-1.43-8.36-4.29c-2-2.59-2.99-5.59-2.99-8.99c0-3.92,1.26-7.2,3.77-9.86
	c2.17-2.25,4.7-3.39,7.59-3.42c3.34,0,6.13,1.43,8.36,4.29c1.99,2.59,2.99,5.59,2.99,8.99C503.93,46.44,502.68,49.72,500.17,52.38z
	 M592.66,26.73l-5.32,23.97L578,26.47l-0.46-1.33h-2.89l-0.46,1.33l-9.34,24.22l-5.32-23.97l-0.36-1.58h-4.23l0.57,2.5l6.82,30.66
	l0.36,1.59h3.1l0.46-1.33l9.86-25.6l9.86,25.6l0.46,1.33h3.1l0.36-1.59l6.81-30.66l0.57-2.5h-4.23L592.66,26.73z M425.07,42.88
	c-0.48-0.37-1-0.71-1.55-1.02c2.17-1.98,3.27-4.31,3.3-7c0-2.86-1.19-5.28-3.56-7.26c-2.03-1.64-4.37-2.45-7.02-2.45l-11.25,0.05
	h-2.06v2.04l-0.05,15.28v17.37h15.28c3.3,0,6-1.19,8.1-3.58c1.62-1.8,2.43-3.85,2.43-6.13C428.68,47.26,427.47,44.82,425.07,42.88z
	 M407,29.23h9.24c2.2,0,3.96,0.8,5.26,2.4c0.79,0.99,1.19,2.06,1.19,3.22c0,1.94-0.93,3.47-2.79,4.6c-1.14,0.68-2.36,1.02-3.66,1.02
	L407,40.53V29.23z M421.76,54.78c-1.1,0.68-2.31,1.02-3.61,1.02l-11.1,0.05V44.56h11.1c2.24,0,3.99,0.8,5.26,2.4
	c0.76,0.99,1.13,2.06,1.13,3.22C424.55,52.13,423.62,53.66,421.76,54.78z M346.2,27.19v21.1c0,2.45-1.07,4.43-3.2,5.93
	c-1.52,1.06-3.2,1.58-5.06,1.58c-2.72,0-4.9-0.99-6.55-2.96c-1.14-1.36-1.7-2.88-1.7-4.55l0.05-21.05l0.05-2.04h-4.18l-0.05,1.99
	v21.1c0,3.34,1.31,6.15,3.92,8.43c2.41,2.11,5.23,3.17,8.46,3.17c3.72,0,6.81-1.31,9.29-3.93c2.07-2.25,3.1-4.81,3.1-7.67
	l0.05-21.05l0.05-2.04h-4.18L346.2,27.19z M661.61,42.47c-0.83-0.37-3.29-1.36-7.38-2.96c-3.3-1.26-5.25-2.45-5.83-3.58
	c-0.17-0.37-0.26-0.73-0.26-1.07c0-1.97,1.05-3.51,3.15-4.6c1.31-0.68,2.7-1.02,4.18-1.02c2.55,0,4.56,0.8,6.04,2.4
	c0.86,0.95,1.29,2.03,1.29,3.22h4.13c0-2.83-1.24-5.21-3.72-7.15c-2.2-1.7-4.78-2.55-7.74-2.55c-3.72,0-6.71,1.23-8.98,3.68
	c-1.65,1.8-2.48,3.81-2.48,6.03c0,3.03,2.08,5.57,6.25,7.61c0.79,0.38,3.22,1.35,7.28,2.91c3.34,1.3,5.3,2.52,5.88,3.68
	c0.21,0.38,0.31,0.75,0.31,1.13c0,1.87-1.12,3.37-3.36,4.5c-1.51,0.75-3.15,1.12-4.9,1.12c-2.79,0-5.02-0.78-6.71-2.35
	c-1-0.99-1.51-2.08-1.55-3.27h-4.13c0,2.66,1.22,4.96,3.66,6.9c2.44,1.87,5.35,2.81,8.72,2.81c3.89,0,7.09-1.23,9.6-3.68
	c1.82-1.84,2.75-3.85,2.79-6.03C667.86,47.12,665.77,44.55,661.61,42.47z M746.05,25.14h-5.88l-0.57,0.61l-14.87,14.72h-2.27V25.14
	h-4.13v34.75h4.13V44.56h2.27l14.87,14.72l0.57,0.61h5.88l-3.56-3.47l-13.99-13.9l13.99-13.9L746.05,25.14z"/>
</svg>
