<?xml version="1.0" encoding="utf-8"?>
<!-- Generator: Adobe Illustrator 25.1.0, SVG Export Plug-In . SVG Version: 6.00 Build 0)  -->
<svg version="1.1" id="Warstwa_1" xmlns="http://www.w3.org/2000/svg" xmlns:xlink="http://www.w3.org/1999/xlink" x="0px" y="0px"
	 viewBox="0 0 850.39 850.39" style="enable-background:new 0 0 850.39 850.39;" xml:space="preserve">
<path d="M453.23,443.75l0.58,338.54c4.04,0.19,8.4,0.32,13.54,0.37l-1.22-714.9c-4.94,0.07-9.49,0.23-13.84,0.46l-0.83,0.02
	C268.74,78.46,123.95,224,114.68,406.78c-0.35,6.77-0.51,13-0.5,19.04c0.01,5.56,0.15,11.19,0.42,16.73h13.59
	c-0.3-5.88-0.45-11.37-0.46-16.75c-0.01-5.92,0.16-12.18,0.54-19.15c4.5-84.28,39.92-163.81,99.73-223.93
	c59.8-60.11,139.13-95.95,223.37-100.9l1.26-0.07l0.02,9.59l-1.13,0.07c-169.6,10.12-304.45,145.7-313.66,315.36
	c-0.38,6.98-0.56,13.2-0.55,19c0.01,5.33,0.17,10.82,0.47,16.77h315.47V443.75z M151.36,407.91l0.07-1.26
	c9.27-161.78,138.22-291.46,299.95-301.64l1.27-0.08v1.27l0.52,301.71H151.36z M673.94,703.41c-53.14,38.8-116,61.31-181.84,65.13
	l-1.26,0.08l-0.02-9.59l1.13-0.06c63.15-3.77,123.67-25.37,175.1-62.47l-9.8-9.79c-48.69,34.64-105.78,54.92-165.18,58.65
	l-1.27,0.09l-0.01-1.28l-0.47-275.35l204.98,204.98c8.41-7.58,16.65-15.81,24.49-24.49L495.72,425.24l0.84-0.84L719.84,201.1
	c-7.81-8.64-16.05-16.87-24.5-24.48L490.18,381.78l-0.01-2.88l-0.53-310.8c-4.02-0.19-8.39-0.32-13.55-0.37l1.21,714.89
	c5.71-0.09,10.4-0.24,14.67-0.47c69.34-3.87,135.57-27.76,191.6-69.09L673.94,703.41z M715.41,668.01
	c-3.9,3.91-8.15,7.94-13.31,12.6l9.56,9.56c8.47-7.67,16.7-15.9,24.51-24.49l-9.51-9.51C722.96,660.25,719.18,664.23,715.41,668.01z
	 M711.7,160.26l-9.73,9.73c8.48,7.66,16.72,15.89,24.52,24.48l9.73-9.73C728.43,176.18,720.19,167.96,711.7,160.26z"/>
</svg>
